HIERARCHY
ROOT hip
{
  OFFSET 0 0 0
  CHANNELS 6 Xposition Yposition Zposition Zrotation Yrotation Xrotation
  JOINT abdomen
  {
    OFFSET 0 20.6881 -0.73152
    CHANNELS 3 Zrotation Xrotation Yrotation
    JOINT chest
    {
      OFFSET 0 11.7043 -0.48768
      CHANNELS 3 Zrotation Xrotation Yrotation
      JOINT neck
      {
        OFFSET 0 22.1894 -2.19456
        CHANNELS 3 Zrotation Xrotation Yrotation
        JOINT head
        {
          OFFSET -0.24384 7.07133 1.2192
          CHANNELS 3 Zrotation Xrotation Yrotation
          JOINT leftEye
          {
            OFFSET 4.14528 8.04674 8.04672
            CHANNELS 3 Zrotation Xrotation Yrotation
            End Site
            {
              OFFSET 1 0 0
            }
          }
          JOINT rightEye
          {
            OFFSET -3.6576 8.04674 8.04672
            CHANNELS 3 Zrotation Xrotation Yrotation
            End Site
            {
              OFFSET 1 0 0
            }
          }
        }
      }
      JOINT rCollar
      {
        OFFSET -2.68224 19.2634 -4.8768
        CHANNELS 3 Zrotation Xrotation Yrotation
        JOINT rShldr
        {
          OFFSET -8.77824 -1.95073 1.46304
          CHANNELS 3 Zrotation Xrotation Yrotation
          JOINT rForeArm
          {
            OFFSET -28.1742 -1.7115 0.48768
            CHANNELS 3 Zrotation Xrotation Yrotation
            JOINT rHand
            {
              OFFSET -22.5879 0.773209 7.07136
              CHANNELS 3 Zrotation Xrotation Yrotation
              JOINT rThumb1
              {
                OFFSET -1.2192 -0.487915 3.41376
                CHANNELS 3 Zrotation Xrotation Yrotation
                JOINT rThumb2
                {
                  OFFSET -3.37035 -0.52449 3.41376
                  CHANNELS 3 Zrotation Xrotation Yrotation
                  End Site
                  {
                    OFFSET -1.78271 -1.18214 1.43049
                  }
                }
              }
              JOINT rIndex1
              {
                OFFSET -7.75947 0.938293 5.60832
                CHANNELS 3 Zrotation Xrotation Yrotation
                JOINT rIndex2
                {
                  OFFSET -2.54057 -0.884171 1.56538
                  CHANNELS 3 Zrotation Xrotation Yrotation
                  End Site
                  {
                    OFFSET -1.62519 -0.234802 1.16502
                  }
                }
              }
              JOINT rMid1
              {
                OFFSET -8.24714 1.18213 3.41376
                CHANNELS 3 Zrotation Xrotation Yrotation
                JOINT rMid2
                {
                  OFFSET -3.10165 -0.590103 1.0647
                  CHANNELS 3 Zrotation Xrotation Yrotation
                  End Site
                  {
                    OFFSET -2.48547 -0.328903 0.83742
                  }
                }
              }
              JOINT rRing1
              {
                OFFSET -8.82822 0.546677 1.51678
                CHANNELS 3 Zrotation Xrotation Yrotation
                JOINT rRing2
                {
                  OFFSET -2.60934 -0.819778 -0.0198488
                  CHANNELS 3 Zrotation Xrotation Yrotation
                  End Site
                  {
                    OFFSET -2.33842 -0.294052 0.168128
                  }
                }
              }
              JOINT rPinky1
              {
                OFFSET -8.27202 -0.0477905 -0.4584
                CHANNELS 3 Zrotation Xrotation Yrotation
                JOINT rPinky2
                {
                  OFFSET -1.82734 -0.647385 -0.700984
                  CHANNELS 3 Zrotation Xrotation Yrotation
                  End Site
                  {
                    OFFSET -1.69225 -0.51767 -0.607171
                  }
                }
              }
            }
          }
        }
      }
      JOINT lCollar
      {
        OFFSET 2.68224 19.2634 -4.8768
        CHANNELS 3 Zrotation Xrotation Yrotation
        JOINT lShldr
        {
          OFFSET 8.77824 -1.95073 1.46304
          CHANNELS 3 Zrotation Xrotation Yrotation
          JOINT lForeArm
          {
            OFFSET 28.1742 -1.7115 0.48768
            CHANNELS 3 Zrotation Xrotation Yrotation
            JOINT lHand
            {
              OFFSET 22.5879 0.773209 7.07136
              CHANNELS 3 Zrotation Xrotation Yrotation
              JOINT lThumb1
              {
                OFFSET 1.2192 -0.487915 3.41376
                CHANNELS 3 Zrotation Xrotation Yrotation
                JOINT lThumb2
                {
                  OFFSET 3.37035 -0.52449 3.41376
                  CHANNELS 3 Zrotation Xrotation Yrotation
                  End Site
                  {
                    OFFSET 1.78271 -1.18214 1.43049
                  }
                }
              }
              JOINT lIndex1
              {
                OFFSET 7.75947 0.938293 5.60832
                CHANNELS 3 Zrotation Xrotation Yrotation
                JOINT lIndex2
                {
                  OFFSET 2.54057 -0.884171 1.56538
                  CHANNELS 3 Zrotation Xrotation Yrotation
                  End Site
                  {
                    OFFSET 1.62519 -0.234802 1.16502
                  }
                }
              }
              JOINT lMid1
              {
                OFFSET 8.24714 1.18213 3.41376
                CHANNELS 3 Zrotation Xrotation Yrotation
                JOINT lMid2
                {
                  OFFSET 3.10165 -0.590103 1.0647
                  CHANNELS 3 Zrotation Xrotation Yrotation
                  End Site
                  {
                    OFFSET 2.48547 -0.328903 0.83742
                  }
                }
              }
              JOINT lRing1
              {
                OFFSET 8.82822 0.546677 1.51678
                CHANNELS 3 Zrotation Xrotation Yrotation
                JOINT lRing2
                {
                  OFFSET 2.60934 -0.819778 -0.0198488
                  CHANNELS 3 Zrotation Xrotation Yrotation
                  End Site
                  {
                    OFFSET 2.33842 -0.294052 0.168128
                  }
                }
              }
              JOINT lPinky1
              {
                OFFSET 8.27202 -0.0477905 -0.4584
                CHANNELS 3 Zrotation Xrotation Yrotation
                JOINT lPinky2
                {
                  OFFSET 1.82734 -0.647385 -0.700984
                  CHANNELS 3 Zrotation Xrotation Yrotation
                  End Site
                  {
                    OFFSET 1.69225 -0.51767 -0.607171
                  }
                }
              }
            }
          }
        }
      }
    }
  }
  JOINT rButtock
  {
    OFFSET -8.77824 4.35084 1.2192
    CHANNELS 3 Zrotation Xrotation Yrotation
    JOINT rThigh
    {
      OFFSET 0 -1.70687 -2.19456
      CHANNELS 3 Zrotation Xrotation Yrotation
      JOINT rShin
      {
        OFFSET 0 -36.8199 0.73152
        CHANNELS 3 Zrotation Xrotation Yrotation
        JOINT rFoot
        {
          OFFSET 0.73152 -45.1104 -5.12064
          CHANNELS 3 Zrotation Xrotation Yrotation
          End Site
          {
            OFFSET -1.1221 -3.69964 12.103
          }
        }
      }
    }
  }
  JOINT lButtock
  {
    OFFSET 8.77824 4.35084 1.2192
    CHANNELS 3 Zrotation Xrotation Yrotation
    JOINT lThigh
    {
      OFFSET 0 -1.70687 -2.19456
      CHANNELS 3 Zrotation Xrotation Yrotation
      JOINT lShin
      {
        OFFSET 0 -36.8199 0.73152
        CHANNELS 3 Zrotation Xrotation Yrotation
        JOINT lFoot
        {
          OFFSET -0.73152 -45.1104 -5.12064
          CHANNELS 3 Zrotation Xrotation Yrotation
          End Site
          {
            OFFSET 1.1221 -3.69964 12.103
          }
        }
      }
    }
  }
}
MOTION
Frames:	7
Frame Time:	0.00833333
56.5304 85.5886 242.53 0.0 0.0 0.0 2.72254 0.000518426 0.0736188 0.75082 0.0131641 0.129926 1.23325e-13 0.0 1.14301e-15 3.69603e-13 3.18055e-15 3.57502e-15 -0.0 0.0 0.0 -0.0 0.0 0.0 6.16229e-14 -1.76266e-16 7.45443e-16 1.29331e-12 -3.47252e-15 1.70955e-14 2.227e-11 -6.77299e-12 3.81667e-14 2.54403e-10 5.97686e-12 2.78935e-12 6.00167e-10 -1.73252e-12 6.0844e-12 1.03644e-09 -2.99926e-12 1.04895e-11 6.00173e-10 -1.72982e-12 6.07486e-12 7.73091 5.47488 0.417314 6.00166e-10 -1.73231e-12 6.08758e-12 2.90554 0.965183 0.102902 6.00177e-10 -1.73241e-12 6.08758e-12 10.2786 0.731801 0.0259123 6.00159e-10 -1.72982e-12 6.09394e-12 2.22167 -0.733487 -0.20892 6.14288e-14 -1.78596e-16 3.47873e-16 1.28966e-12 -4.3422e-15 1.55052e-14 2.21891e-11 6.54061e-12 2.22639e-14 2.54426e-10 -7.36149e-12 2.80843e-12 6.0006e-10 -1.7748e-12 6.07804e-12 1.03629e-09 -3.06287e-12 1.04839e-11 6.00057e-10 -1.77356e-12 6.08758e-12 -7.73091 5.47488 -0.417314 6.0006e-10 -1.77445e-12 6.08122e-12 -2.90554 0.965183 -0.102902 6.00052e-10 -1.77435e-12 6.08361e-12 -10.2786 0.731801 -0.0259123 6.00062e-10 -1.77276e-12 6.07486e-12 -2.22167 -0.733487 0.20892 -2.03217e-16 0.0 -3.88251e-19 2.53372 -8.6519 -0.274526 0.00739033 10.0931 0.189473 -0.517674 -1.45215 0.0286966 2.03217e-16 0.0 3.88251e-19 1.60863 -1.93183 -0.00954521 0.00859404 -2.07865 0.0705871 0.458067 3.99948 -0.132358
57.6689 84.1379 235.896 178.581 3.3906 -164.423 1.32686 2.35003 1.76318 2.08681 0.799816 0.567789 -0.992196 2.43411 0.209752 2.54294 3.76869 -1.63951 -0.0 0.0 0.0 -0.0 0.0 0.0 2.0395e-14 6.54691e-14 -2.4654e-14 22.9703 -0.530622 -1.61194 -4.66922 -2.2186 7.18563 0.0241418 3.47749 0.48559 7.14094e-10 1.50247e-10 -2.83122e-11 1.233e-09 2.58501e-10 -5.09044e-11 7.141e-10 1.50249e-10 -2.83206e-11 7.73091 5.47488 0.417314 7.14093e-10 1.50247e-10 -2.8309e-11 2.90554 0.965183 0.102902 7.14104e-10 1.50248e-10 -2.83113e-11 10.2786 0.731801 0.0259123 7.14089e-10 1.5025e-10 -2.83074e-11 2.22167 -0.733487 -0.20892 2.02485e-14 6.54709e-14 -2.50426e-14 -21.8417 6.42261 -2.78974 2.95884 -1.16417 -4.79879 -0.133821 8.13946 -1.10286 3.69113e-10 2.39823e-11 3.16894e-10 6.45884e-10 4.26112e-11 5.47025e-10 3.69108e-10 2.39829e-11 3.16902e-10 -7.73091 5.47488 -0.417314 3.69113e-10 2.39819e-11 3.16897e-10 -2.90554 0.965183 -0.102902 3.69104e-10 2.3982e-11 3.16899e-10 -10.2786 0.731801 -0.0259123 3.69115e-10 2.39839e-11 3.16891e-10 -2.22167 -0.733487 0.20892 -2.03217e-16 0.0 -3.88251e-19 0.330312 -15.2037 1.09149 0.0251902 13.2986 0.245279 -0.568543 -3.76209 -1.99582 2.03217e-16 0.0 3.88251e-19 2.79664 -8.16484 -2.42527 0.0157098 2.68045 -0.0300697 0.762324 -1.2287 3.89231
57.71 84.1389 235.843 178.477 3.4972 -164.26 -0.30115 4.82395 3.5647 3.48381 1.62653 1.03267 -2.06551 5.011 0.430546 5.47443 7.72864 -3.39657 -0.0 0.0 0.0 -0.0 0.0 0.0 -2.59554e-14 1.41454e-13 -5.33116e-14 47.2212 -1.03649 -3.31066 -9.02761 -4.46415 14.8515 -0.0149641 7.10009 0.997581 8.67837e-10 3.36423e-10 -1.34042e-10 1.49741e-09 5.78652e-10 -2.3608e-10 8.67843e-10 3.36425e-10 -1.34048e-10 7.73091 5.47488 0.417314 8.67836e-10 3.36424e-10 -1.34038e-10 2.90554 0.965183 0.102902 8.67848e-10 3.36425e-10 -1.34043e-10 10.2786 0.731801 0.0259123 8.67835e-10 3.36427e-10 -1.34042e-10 2.22167 -0.733487 -0.20892 -2.60534e-14 1.4146e-13 -5.36936e-14 -44.2244 13.1897 -5.87066 5.88193 -2.37125 -9.88862 0.0788401 16.6869 -2.33883 6.35091e-11 4.64838e-11 7.07079e-10 1.28702e-10 8.30975e-11 1.22206e-09 6.35024e-11 4.64837e-11 7.07084e-10 -7.73091 5.47488 -0.417314 6.35094e-11 4.64825e-11 7.07082e-10 -2.90554 0.965183 -0.102902 6.34978e-11 4.64828e-11 7.07083e-10 -10.2786 0.731801 -0.0259123 6.35108e-11 4.64849e-11 7.07076e-10 -2.22167 -0.733487 0.20892 -2.03217e-16 0.0 -3.88251e-19 -1.63347 -22.1083 2.64723 0.0368632 16.6813 0.306686 -0.800367 -6.18854 -4.15378 2.03217e-16 0.0 3.88251e-19 3.46421 -14.7154 -5.09836 0.0415842 7.71971 -0.137728 1.88384 -6.6924 8.20022
57.7688 84.1507 235.704 178.491 3.6924 -164.309 -1.88228 7.02391 5.1768 4.72269 2.37248 1.44459 -3.03042 7.30193 0.633828 8.2858 11.2687 -5.00462 -0.0 0.0 0.0 -0.0 0.0 0.0 -6.20609e-14 1.9676e-13 -7.54528e-14 68.8214 -1.58683 -4.83748 -12.3737 -6.23796 21.6754 -0.106916 10.4294 1.47852 9.41949e-10 4.54205e-10 -9.71054e-11 1.6261e-09 7.81503e-10 -1.73692e-10 9.41954e-10 4.54207e-10 -9.71114e-11 7.73091 5.47488 0.417314 9.41947e-10 4.54207e-10 -9.71022e-11 2.90554 0.965183 0.102902 9.4196e-10 4.54208e-10 -9.71092e-11 10.2786 0.731801 0.0259123 9.41949e-10 4.5421e-10 -9.71101e-11 2.22167 -0.733487 -0.20892 -6.21122e-14 1.9677e-13 -7.58235e-14 -63.5637 19.0797 -8.80381 8.29746 -3.39464 -14.4192 0.616189 24.3804 -3.59631 -9.27804e-11 7.54966e-11 9.38527e-10 -1.34929e-10 1.33959e-10 1.62011e-09 -9.27883e-11 7.54959e-11 9.38531e-10 -7.73091 5.47488 -0.417314 -9.27797e-11 7.54945e-11 9.3853e-10 -2.90554 0.965183 -0.102902 -9.27928e-11 7.54948e-11 9.38531e-10 -10.2786 0.731801 -0.0259123 -9.27787e-11 7.54972e-11 9.38524e-10 -2.22167 -0.733487 0.20892 -2.03217e-16 0.0 -3.88251e-19 -3.02519 -28.2506 4.20419 0.0407572 19.7093 0.364372 -1.16361 -8.34201 -6.09666 2.03217e-16 0.0 3.88251e-19 3.50763 -20.4831 -7.67054 0.0808227 12.1986 -0.236532 3.5901 -11.4372 12.1839
57.8572 84.1402 235.695 178.617 3.6782 -163.959 -3.04914 8.56311 6.28251 5.59167 2.91711 1.7231 -3.68699 8.87827 0.789055 10.3336 13.7942 -6.15967 -0.0 0.0 0.0 -0.0 0.0 0.0 -7.2554e-14 2.00369e-13 -8.13029e-14 83.8425 -2.25188 -5.93389 -14.3578 -7.24688 26.2769 -0.212806 13.0282 1.86354 8.1698e-10 4.01001e-10 2.96494e-10 1.41551e-09 6.91103e-10 5.07603e-10 8.16985e-10 4.01002e-10 2.96488e-10 7.73091 5.47488 0.417314 8.16978e-10 4.01003e-10 2.96498e-10 2.90554 0.965183 0.102902 8.1699e-10 4.01004e-10 2.9649e-10 10.2786 0.731801 0.0259123 8.16982e-10 4.01006e-10 2.96488e-10 2.22167 -0.733487 -0.20892 -7.25636e-14 2.0038e-13 -8.16508e-14 -76.7411 22.9619 -10.9401 9.85489 -4.05365 -17.5296 1.2452 29.9732 -4.64914 1.24217e-10 1.20788e-10 7.73136e-10 2.35317e-10 2.10759e-10 1.3257e-09 1.24209e-10 1.20786e-10 7.73139e-10 -7.73091 5.47488 -0.417314 1.24218e-10 1.20785e-10 7.73139e-10 -2.90554 0.965183 -0.102902 1.24204e-10 1.20785e-10 7.73139e-10 -10.2786 0.731801 -0.0259123 1.2422e-10 1.20788e-10 7.73132e-10 -2.22167 -0.733487 0.20892 -2.03217e-16 0.0 -3.88251e-19 -3.75843 -32.5379 5.43559 0.0395785 21.8502 0.406927 -1.50658 -9.84982 -7.45574 2.03217e-16 0.0 3.88251e-19 3.19977 -24.4327 -9.60804 0.117055 15.2765 -0.307436 5.18685 -14.6358 15.0878
57.944 84.1233 235.706 178.721 3.5811 -163.575 -3.51279 9.19393 6.6592 5.95523 3.18976 1.81451 -3.878 9.45311 0.871348 11.0886 14.9331 -6.63114 -0.0 0.0 0.0 -0.0 0.0 0.0 -3.97953e-14 1.15428e-13 -5.91148e-14 89.6775 -3.12639 -6.42458 -14.9 -7.4548 27.6832 -0.285333 14.6228 2.1039 3.17701e-10 3.78471e-11 1.42223e-09 5.67832e-10 6.94523e-11 2.45898e-09 3.17703e-10 3.7848e-11 1.42222e-09 7.73091 5.47488 0.417314 3.17698e-10 3.78499e-11 1.42224e-09 2.90554 0.965183 0.102902 3.17708e-10 3.785e-11 1.42223e-09 10.2786 0.731801 0.0259123 3.177e-10 3.78518e-11 1.42223e-09 2.22167 -0.733487 -0.20892 -3.9764e-14 1.15436e-13 -5.94153e-14 -81.9974 24.1616 -11.643 10.3796 -4.26349 -18.6246 1.62129 32.7333 -5.22019 1.06168e-09 2.06653e-10 -1.38187e-10 1.82956e-09 3.53431e-10 -2.71636e-10 1.06168e-09 2.0665e-10 -1.38183e-10 -7.73091 5.47488 -0.417314 1.06168e-09 2.06649e-10 -1.38183e-10 -2.90554 0.965183 -0.102902 1.06167e-09 2.06649e-10 -1.38184e-10 -10.2786 0.731801 -0.0259123 1.06169e-09 2.06651e-10 -1.38191e-10 -2.22167 -0.733487 0.20892 -2.03217e-16 0.0 -3.88251e-19 -4.00441 -34.2774 5.95207 0.0382034 22.7594 0.425255 -1.66466 -10.4775 -7.9667 2.03217e-16 0.0 3.88251e-19 2.98448 -25.949 -10.3845 0.132121 16.3957 -0.334419 5.90616 -15.8551 16.2628
57.9751 84.1292 235.539 178.61 3.6778 -163.626 -3.44315 9.18055 6.50844 5.9605 3.2678 1.77207 -3.73278 9.31273 0.90071 10.8667 15.0888 -6.59584 -0.0 0.0 0.0 -0.0 0.0 0.0 2.35055e-14 -3.19941e-14 -1.71483e-14 88.9622 -4.14981 -6.48363 -14.4945 -7.1545 26.7962 -0.319009 15.5 2.23622 -4.44391e-10 -5.43339e-10 3.05984e-09 -7.2718e-10 -9.25915e-10 5.29835e-09 -4.44392e-10 -5.43339e-10 3.05983e-09 7.73091 5.47488 0.417314 -4.44395e-10 -5.43336e-10 3.05985e-09 2.90554 0.965183 0.102902 -4.44389e-10 -5.43337e-10 3.05984e-09 10.2786 0.731801 0.0259123 -4.44396e-10 -5.43335e-10 3.05985e-09 2.22167 -0.733487 -0.20892 2.35769e-14 -3.19921e-14 -1.73843e-14 -81.7502 23.481 -11.2417 10.2036 -4.16994 -18.2771 1.6956 33.4762 -5.36749 2.50435e-09 3.20653e-10 -1.57325e-09 4.28207e-09 5.41747e-10 -2.78375e-09 2.50434e-09 3.20649e-10 -1.57325e-09 -7.73091 5.47488 -0.417314 2.50435e-09 3.20647e-10 -1.57325e-09 -2.90554 0.965183 -0.102902 2.50434e-09 3.20646e-10 -1.57325e-09 -10.2786 0.731801 -0.0259123 2.50436e-09 3.20648e-10 -1.57326e-09 -2.22167 -0.733487 0.20892 -2.03217e-16 0.0 -3.88251e-19 -4.01474 -34.2085 5.88482 0.0384372 22.7883 0.425344 -1.65358 -10.4837 -7.86327 2.03217e-16 0.0 3.88251e-19 2.98725 -25.7573 -10.2492 0.128081 16.1156 -0.328599 5.82609 -15.7193 16.1396
